<svg xmlns="http://www.w3.org/2000/svg" viewBox="0 0 384 384"><defs/><path fill="#766357" d="M344 50h-24V31c0-6-4-10-10-10s-10 4-10 10v19h-98V31c0-6-4-10-10-10s-10 4-10 10v19H83V31c0-6-4-10-10-10s-10 4-10 10v19H40C18 50 0 69 0 91v232c0 22 18 40 40 40h304c22 0 40-18 40-40V91c0-22-18-41-40-41zm20 273c0 11-9 20-20 20H40c-11 0-20-9-20-20V91c0-12 9-21 20-21h23v15c0 5 5 10 10 10s10-5 10-10V70h99v15c0 5 5 10 10 10s10-5 10-10V70h98v15c0 5 5 10 10 10s10-5 10-10V70h24c11 0 20 10 20 21v232z"/><path fill="#766357" d="M166 135h-18c-5 0-10 5-10 10s5 10 10 10h18c5 0 10-4 10-10s-5-10-10-10zM235 135h-17c-6 0-10 5-10 10s4 10 10 10h17c6 0 10-4 10-10s-4-10-10-10zM306 135h-18c-5 0-10 5-10 10s5 10 10 10h18c5 0 10-4 10-10s-5-10-10-10zM166 204h-18c-5 0-10 5-10 10s5 10 10 10h18c5 0 10-4 10-10s-5-10-10-10zM96 204H78c-5 0-10 5-10 10s5 10 10 10h18c5 0 10-4 10-10s-5-10-10-10zM235 204h-17c-6 0-10 5-10 10s4 10 10 10h17c6 0 10-4 10-10s-4-10-10-10zM306 204h-18c-5 0-10 5-10 10s5 10 10 10h18c5 0 10-4 10-10s-5-10-10-10zM166 272h-18c-5 0-10 5-10 10s5 10 10 10h18c5 0 10-4 10-10s-5-10-10-10zM96 272H78c-5 0-10 5-10 10s5 10 10 10h18c5 0 10-4 10-10s-5-10-10-10zM235 272h-17c-6 0-10 5-10 10s4 10 10 10h17c6 0 10-4 10-10s-4-10-10-10z"/></svg>