<svg xmlns="http://www.w3.org/2000/svg" viewBox="0 0 60 60"><defs/><g style="fill:#81b3d2;" fill-rule="nonzero"><path d="M6.6 18.3A3 3 0 005 21v7c0 1.1.9 2 2 2v27a3 3 0 003 3h40a3 3 0 003-3V30a2 2 0 002-2v-7a3 3 0 00-1.6-2.7c4.1-2.6 6.4-7.6 6.5-7.9A1 1 0 0059 9h-4V5a1 1 0 00-1.6-.8L50 7c-1.5-2.8-3.8-5-6.6-6.5-.6-.4-1.4-.5-2-.5-6.8.4-10 5.8-11.4 9.5-1.4-3.7-4.6-9-11.3-9.5-.7 0-1.5.1-2.1.5C13.8 2 11.6 4.2 10 7L6.6 4.2A1 1 0 005 5v4H1a1 1 0 00-1 1.4c.2.3 2.5 5.3 6.6 8zM23 20v8H7v-7c0-.6.4-1 1-1zm2-5.9c-2.4-2-4-4.7-4.7-7.7 3.2 1.4 4.8 5.2 5.4 6.9a5 5 0 00-.8.8zm1 2.9a3 3 0 013-3h2a3 3 0 013 3v1h-8zm9 11H25v-8h10zm-.7-14.7c.6-1.7 2.2-5.5 5.4-6.9-.7 3-2.3 5.7-4.6 7.7a5 5 0 00-.8-.8zM9 57V30h16v28H10a1 1 0 01-1-1zm18 1V30h6v28zm24-1c0 .6-.4 1-1 1H35V30h16zm1-37c.6 0 1 .4 1 1v7H37v-8zm2-9h3.3c-1.3 2.4-4.6 7-9.3 7h-2.2c1.7-1.4 3.2-3 4.4-5a5 5 0 00.6-4L53 7V10c0 .6.4 1 1 1zM41.4 2c.4 0 .7 0 1 .2 1.5.8 5.1 3.1 6.4 7.2a3 3 0 01-.3 2.6 16.2 16.2 0 01-6.6 6H36v-1l-.1-1c4.1-2.9 5.5-8 6-10 0-.6-.1-1-.5-1.4-.4-.4-1-.5-1.4-.4-4.4 1.2-6.6 5.7-7.5 8a5 5 0 00-1.3-.2c.8-2.7 3.3-9.6 10.2-10zM11.2 9.4c1.3-4 4.9-6.3 6.4-7.1a2 2 0 011-.3c6.9.5 9.4 7.3 10.2 10a5 5 0 00-1.3.3c-.9-2.4-3.1-6.9-7.5-8-.5-.2-1-.1-1.4.3-.4.3-.6.8-.4 1.3.4 2.2 1.8 7.2 5.9 10.1l-.1 1v1h-6a16.1 16.1 0 01-6.5-6 3 3 0 01-.3-2.6zM6 11c.6 0 1-.4 1-1V7.1L9.2 9a5 5 0 00.6 4c1.2 2 2.7 3.6 4.4 5H12c-4.7 0-8-4.6-9.3-7z"/><path d="M12 32a1 1 0 00-1 1v2a1 1 0 002 0v-2c0-.6-.4-1-1-1zM12 38a1 1 0 00-1 1v16a1 1 0 002 0V39c0-.6-.4-1-1-1zM48 36c.6 0 1-.4 1-1v-2a1 1 0 00-2 0v2c0 .6.4 1 1 1zM48 56c.6 0 1-.4 1-1V39a1 1 0 00-2 0v16c0 .6.4 1 1 1z"/></g></svg>