<svg xmlns="http://www.w3.org/2000/svg" viewBox="0 0 512 512"><defs/><path style="fill:#81b3d2;" d="M187 85c2 0 5-1 6-4l7-12a7 7 0 10-13-7l-7 12a7 7 0 007 11zM263 79V65a7 7 0 00-15 0v14a7 7 0 0015 0zM325 85a7 7 0 007-11l-7-12a7 7 0 00-13 8l7 12c1 2 4 3 6 3z"/><path style="fill:#81b3d2;" d="M512 232v-7c0-14-7-26-18-34a36 36 0 0011-39c-9-27-28-65-67-96A293 293 0 00256 1c-34 0-66 4-94 12a7 7 0 004 15c27-8 57-12 90-12 162 2 217 89 235 141a20 20 0 01-19 27H40c-7 0-13-3-17-9-4-5-5-12-2-18 13-38 43-89 113-118a7 7 0 10-5-14A220 220 0 006 152a35 35 0 0012 39c-11 8-18 20-18 34v7c0 19 14 36 33 40v45c-19 3-33 20-33 40v6c0 20 14 37 33 41-1 7-1 20 4 35 12 38 46 56 71 65 15 5 31 7 47 7h202c16 0 32-2 47-7 25-9 59-27 71-65 5-15 5-28 4-35 19-4 33-21 33-41v-6c0-20-14-37-33-40v-45c19-4 33-21 33-40zM15 363v-6c0-12 7-21 18-25v5c0 10 6 20 15 24 10 5 21 3 29-3a24 24 0 0119-6v37H41c-14 0-26-11-26-26zm299-58h150v32c0 4-2 9-7 11-4 2-9 1-13-2-5-4-13-10-26-10-16 0-25 7-32 13-6 5-11 9-22 9s-16-4-23-9c-7-6-15-13-31-13s-25 7-32 13c-6 5-11 9-22 9s-16-4-22-9c-7-6-16-13-32-13s-24 7-32 13c-4 3-8 6-14 8v-42c0-6 5-10 10-10h113a7 7 0 000-15H166c-14 0-25 11-25 25v92a15 15 0 01-30 0v-92c0-14-11-25-24-25H48v-17h416v17H314a7 7 0 000 15zm-227 0c5 0 9 4 9 10v21h-2c-13 0-21 6-26 10-4 3-9 4-13 2-5-2-7-7-7-11v-32zm374 129c-9 26-29 45-62 56-13 4-27 6-42 6H155c-15 0-29-2-42-6-64-22-67-69-65-86h48v3a30 30 0 0060 0v-3h308c1 7 1 18-3 30zm36-77v6c0 15-12 26-26 26H156v-17c11-2 18-7 24-12s11-9 22-9 16 4 22 9c7 6 16 13 32 13s24-7 32-13c6-5 11-9 22-9s16 4 22 9c7 6 16 13 32 13s24-7 31-13c7-5 12-9 23-9 8 0 13 3 17 7 8 6 19 8 29 3 9-4 15-14 15-24v-5c11 4 18 13 18 25zm-26-99H41c-14 0-26-12-26-26v-7c0-14 12-26 26-26h430c14 0 26 12 26 26v7c0 14-12 26-26 26z"/></svg>