<svg xmlns="http://www.w3.org/2000/svg" viewBox="0 0 512 512"><defs/><path style="fill:#81b3d2;" d="M472 417v-1a32 32 0 00-32-32V236l29-22a8 8 0 000-12l-69-51V64a8 8 0 008-8V24a8 8 0 00-8-8h-80a8 8 0 00-8 8v32a8 8 0 008 8v29l-59-43a8 8 0 00-10 0L43 202a8 8 0 000 12l29 22v148a32 32 0 00-32 32v1a32 32 0 008 63h416a32 32 0 008-63zM328 32h64v16h-64zm8 72V64h48v76l-49-36zm-80-38l195 142-19 14L261 98a8 8 0 00-10 0L80 222l-19-14zM32 448a16 16 0 0116-16h1a8 8 0 008-11 16 16 0 01-1-5 16 16 0 0116-16v64H48a16 16 0 01-16-16zm344 16h-96V288h96zm16 0V280a8 8 0 00-8-8H272a8 8 0 00-8 8v184H88V236l168-122 168 122v228zm72 0h-24v-64a16 16 0 0116 16 16 16 0 01-1 5 8 8 0 008 11h1a16 16 0 010 32z"/><path style="fill:#81b3d2;" d="M224 272h-96a8 8 0 00-8 8v112a8 8 0 008 8h96a8 8 0 008-8V280a8 8 0 00-8-8zm-8 56h-32v-40h32zm-48-40v40h-32v-40zm-32 56h32v40h-32zm48 40v-40h32v40z"/><circle style="fill:#81b3d2;" cx="304" cy="368" r="8" transform="rotate(-68 304 368)"/></svg>